<?xml version="1.0" standalone="no"?>
<!DOCTYPE svg PUBLIC "-//W3C//DTD SVG 20010904//EN"
 "http://www.w3.org/TR/2001/REC-SVG-20010904/DTD/svg10.dtd">
<svg version="1.0" xmlns="http://www.w3.org/2000/svg"
 width="360.000000pt" height="360.000000pt" viewBox="0 0 360.000000 360.000000"
 preserveAspectRatio="xMidYMid meet">
<metadata>
Created by potrace 1.11, written by Peter Selinger 2001-2013
</metadata>
<g transform="translate(0.000000,360.000000) scale(0.100000,-0.100000)"
fill="#000000" stroke="none">
<path d="M0 1800 l0 -1800 1800 0 1800 0 0 1800 0 1800 -1800 0 -1800 0 0
-1800z m2056 1155 c229 -271 407 -610 455 -865 11 -63 14 -68 109 -165 53 -55
117 -128 143 -162 141 -186 283 -471 366 -738 17 -54 31 -104 31 -109 0 -6
-18 20 -40 58 -132 226 -330 458 -515 606 l-79 62 -9 -28 c-72 -250 -153 -398
-304 -555 l-83 -86 67 -30 c214 -96 486 -158 748 -172 l130 -7 -70 -21 c-197
-61 -532 -93 -754 -73 -140 12 -332 54 -415 90 l-49 21 -63 -21 c-131 -44
-243 -61 -434 -67 -242 -7 -370 6 -620 65 l-115 27 65 3 c252 9 561 75 778
164 l72 30 -66 70 c-128 136 -231 325 -277 509 l-22 88 -70 -51 c-91 -67 -305
-282 -382 -383 -50 -66 -133 -189 -190 -281 -10 -17 -11 -17 -6 6 40 191 142
451 248 635 101 175 240 343 382 459 18 15 34 40 38 59 64 298 312 717 580
977 l67 65 -32 -55 c-64 -110 -159 -318 -199 -432 -54 -157 -111 -418 -91
-418 5 0 48 10 97 22 70 17 120 22 243 22 159 1 246 -10 349 -45 l54 -19 -7
63 c-28 250 -138 561 -297 837 l-31 55 57 -55 c31 -30 95 -100 141 -155z"/>
<path d="M1665 1874 c-148 -31 -205 -47 -205 -59 0 -7 12 -53 26 -101 28 -98
84 -221 135 -301 40 -60 169 -213 180 -213 15 0 131 125 181 195 27 39 68 105
89 148 45 88 103 253 96 271 -6 14 -100 41 -197 56 -63 10 -264 12 -305 4z"/>
</g>
</svg>
